<?xml version="1.0" encoding="UTF-8" standalone="no"?>
<svg
   xmlns:dc="http://purl.org/dc/elements/1.1/"
   xmlns:cc="http://creativecommons.org/ns#"
   xmlns:rdf="http://www.w3.org/1999/02/22-rdf-syntax-ns#"
   xmlns:svg="http://www.w3.org/2000/svg"
   xmlns="http://www.w3.org/2000/svg"
   xmlns:sodipodi="http://sodipodi.sourceforge.net/DTD/sodipodi-0.dtd"
   xmlns:inkscape="http://www.inkscape.org/namespaces/inkscape"
   id="svg8"
   version="1.1"
   viewBox="0 0 200 200"
   height="200mm"
   width="200mm"
   sodipodi:docname="error_imagen.svg"
   inkscape:version="0.92.4 (5da689c313, 2019-01-14)">
  <sodipodi:namedview
     pagecolor="#ffffff"
     bordercolor="#666666"
     borderopacity="1"
     objecttolerance="10"
     gridtolerance="10"
     guidetolerance="10"
     inkscape:pageopacity="0"
     inkscape:pageshadow="2"
     inkscape:window-width="1366"
     inkscape:window-height="696"
     id="namedview12"
     showgrid="false"
     inkscape:zoom="0.31220833"
     inkscape:cx="377.95276"
     inkscape:cy="377.95276"
     inkscape:window-x="0"
     inkscape:window-y="0"
     inkscape:window-maximized="1"
     inkscape:current-layer="text12" />
  <defs
     id="defs2" />
  <metadata
     id="metadata5">
    <rdf:RDF>
      <cc:Work
         rdf:about="">
        <dc:format>image/svg+xml</dc:format>
        <dc:type
           rdf:resource="http://purl.org/dc/dcmitype/StillImage" />
        <dc:title />
      </cc:Work>
    </rdf:RDF>
  </metadata>
  <g
     transform="translate(0,-97)"
     id="layer1">
    <path
       style="fill:#c6e9af;stroke:#ffb380;stroke-width:0.35930181"
       d="M 0.33500999,97.244354 H 199.75908 V 296.77711 H 0.33500999 Z"
       id="rect3715" />
    <g
       aria-label="ERROR ALCARGARIMAGEN"
       style="font-style:normal;font-weight:normal;font-size:41.92087173px;line-height:1.25;font-family:sans-serif;letter-spacing:0px;word-spacing:0px;fill:#000000;fill-opacity:1;stroke:none;stroke-width:1.04802155"
       id="text12">
      <path
         d="m 29.015133,103.53615 h 19.322902 v 3.47976 H 33.149907 v 9.04738 h 14.553584 v 3.47976 H 33.149907 v 11.07382 H 48.70648 v 3.47976 H 29.015133 Z"
         style="text-align:center;text-anchor:middle;stroke-width:1.04802155"
         id="path15" />
      <path
         d="m 70.035361,119.76821 q 1.330496,0.45032 2.579116,1.9241 1.269089,1.47378 2.538178,4.0529 l 4.196181,8.35142 h -4.441811 l -3.909613,-7.83969 q -1.514719,-3.07038 -2.947561,-4.07337 -1.412373,-1.00299 -3.868674,-1.00299 h -4.503219 v 12.91605 h -4.134773 v -30.56048 h 9.333944 q 5.240109,0 7.819225,2.19021 2.579116,2.1902 2.579116,6.61154 0,2.88615 -1.350966,4.78979 -1.330496,1.90363 -3.889143,2.64052 z M 59.677958,106.93404 v 10.84866 h 5.199171 q 2.988499,0 4.503218,-1.37143 1.535188,-1.39191 1.535188,-4.07337 0,-2.68146 -1.535188,-4.03243 -1.514719,-1.37143 -4.503218,-1.37143 z"
         style="text-align:center;text-anchor:middle;stroke-width:1.04802155"
         id="path17" />
      <path
         d="m 99.183465,119.76821 q 1.330495,0.45032 2.579115,1.9241 1.26909,1.47378 2.53818,4.0529 l 4.19618,8.35142 h -4.44181 l -3.90961,-7.83969 q -1.514723,-3.07038 -2.947565,-4.07337 -1.412374,-1.00299 -3.868675,-1.00299 h -4.503218 v 12.91605 h -4.134774 v -30.56048 h 9.333944 q 5.240109,0 7.819228,2.19021 2.57911,2.1902 2.57911,6.61154 0,2.88615 -1.35096,4.78979 -1.3305,1.90363 -3.889145,2.64052 z M 88.826062,106.93404 v 10.84866 h 5.19917 q 2.9885,0 4.503219,-1.37143 1.535189,-1.39191 1.535189,-4.07337 0,-2.68146 -1.535189,-4.03243 -1.514719,-1.37143 -4.503219,-1.37143 z"
         style="text-align:center;text-anchor:middle;stroke-width:1.04802155"
         id="path19" />
      <path
         d="m 126.24372,106.34043 q -4.50322,0 -7.16421,3.35695 -2.64053,3.35694 -2.64053,9.14972 0,5.77231 2.64053,9.12925 2.66099,3.35695 7.16421,3.35695 4.50322,0 7.12327,-3.35695 2.64052,-3.35694 2.64052,-9.12925 0,-5.79278 -2.64052,-9.14972 -2.62005,-3.35695 -7.12327,-3.35695 z m 0,-3.35694 q 6.42732,0 10.27552,4.31899 3.84821,4.29853 3.84821,11.54462 0,7.22562 -3.84821,11.54461 -3.8482,4.29853 -10.27552,4.29853 -6.44779,0 -10.31647,-4.29853 -3.8482,-4.29852 -3.8482,-11.54461 0,-7.24609 3.8482,-11.54462 3.86868,-4.31899 10.31647,-4.31899 z"
         style="text-align:center;text-anchor:middle;stroke-width:1.04802155"
         id="path21" />
      <path
         d="m 161.32788,119.76821 q 1.3305,0.45032 2.57912,1.9241 1.26909,1.47378 2.53818,4.0529 l 4.19618,8.35142 h -4.44181 l -3.90962,-7.83969 q -1.51472,-3.07038 -2.94756,-4.07337 -1.41237,-1.00299 -3.86867,-1.00299 h -4.50322 v 12.91605 h -4.13477 v -30.56048 h 9.33394 q 5.24011,0 7.81922,2.19021 2.57912,2.1902 2.57912,6.61154 0,2.88615 -1.35097,4.78979 -1.33049,1.90363 -3.88914,2.64052 z m -10.3574,-12.83417 v 10.84866 h 5.19917 q 2.9885,0 4.50322,-1.37143 1.53519,-1.39191 1.53519,-4.07337 0,-2.68146 -1.53519,-4.03243 -1.51472,-1.37143 -4.50322,-1.37143 z"
         style="text-align:center;text-anchor:middle;stroke-width:1.04802155"
         id="path23" />
      <path
         d="m 86.71774,160.01061 -5.608554,15.2086 h 11.237577 z m -2.333486,-4.07336 h 4.687441 l 11.646965,30.56048 h -4.298531 l -2.783808,-7.8397 H 79.860566 l -2.783808,7.8397 h -4.359934 z"
         style="text-align:center;text-anchor:middle;stroke-width:1.04802155"
         id="path25" />
      <path
         d="m 105.16047,155.93725 h 4.13477 v 27.08072 h 14.88109 v 3.47976 h -19.01586 z"
         style="text-align:center;text-anchor:middle;stroke-width:1.04802155"
         id="path27" />
      <path
         d="m 36.670605,210.69229 v 4.35994 q -2.087856,-1.94457 -4.46228,-2.90662 -2.353955,-0.96205 -5.014948,-0.96205 -5.240109,0 -8.023917,3.21366 -2.783808,3.19319 -2.783808,9.25206 0,6.03841 2.783808,9.25207 2.783808,3.19319 8.023917,3.19319 2.660993,0 5.014948,-0.96205 2.374424,-0.96205 4.46228,-2.90662 v 4.31899 q -2.169732,1.47378 -4.605564,2.21067 -2.415363,0.7369 -5.117294,0.7369 -6.939051,0 -10.93054,-4.23712 -3.991489,-4.25759 -3.991489,-11.60603 0,-7.3689 3.991489,-11.60602 3.991489,-4.25759 10.93054,-4.25759 2.742869,0 5.158232,0.73689 2.435832,0.71642 4.564626,2.16973 z"
         style="text-align:center;text-anchor:middle;stroke-width:1.04802155"
         id="path29" />
      <path
         d="m 53.312045,212.41171 -5.608554,15.20859 h 11.237577 z m -2.333486,-4.07337 H 55.666 l 11.646961,30.56048 h -4.298527 l -2.783808,-7.8397 H 46.454871 l -2.783808,7.8397 h -4.359934 z"
         style="text-align:center;text-anchor:middle;stroke-width:1.04802155"
         id="path31" />
      <path
         d="m 86.246948,224.5704 q 1.330496,0.45032 2.579116,1.9241 1.269089,1.47378 2.538178,4.0529 l 4.196181,8.35142 h -4.441812 l -3.909612,-7.8397 q -1.514719,-3.07037 -2.947561,-4.07336 -1.412374,-1.00299 -3.868675,-1.00299 h -4.503218 v 12.91605 h -4.134774 v -30.56048 h 9.333944 q 5.240109,0 7.819225,2.1902 2.579117,2.1902 2.579117,6.61155 0,2.88615 -1.350966,4.78978 -1.330496,1.90364 -3.889143,2.64053 z M 75.889545,211.73622 v 10.84867 h 5.19917 q 2.9885,0 4.503219,-1.37144 1.535188,-1.3919 1.535188,-4.07336 0,-2.68147 -1.535188,-4.03243 -1.514719,-1.37144 -4.503219,-1.37144 z"
         style="text-align:center;text-anchor:middle;stroke-width:1.04802155"
         id="path33" />
      <path
         d="m 121.74049,234.53888 v -8.20813 h -6.75482 v -3.39789 h 10.84866 v 13.12074 q -2.39489,1.69895 -5.28105,2.57912 -2.88615,0.85971 -6.16122,0.85971 -7.16421,0 -11.21711,-4.17572 -4.032426,-4.19618 -4.032426,-11.66743 0,-7.49172 4.032426,-11.66743 4.0529,-4.19618 11.21711,-4.19618 2.9885,0 5.66996,0.73689 2.70193,0.73689 4.97401,2.16973 v 4.40088 q -2.29255,-1.94457 -4.87166,-2.92709 -2.57912,-0.98252 -5.42433,-0.98252 -5.60856,0 -8.4333,3.13178 -2.80428,3.13178 -2.80428,9.33394 0,6.18169 2.80428,9.31348 2.82474,3.13178 8.4333,3.13178 2.1902,0 3.90961,-0.36844 1.71941,-0.38892 3.09084,-1.18722 z"
         style="text-align:center;text-anchor:middle;stroke-width:1.04802155"
         id="path35" />
      <path
         d="m 143.62204,212.41171 -5.60855,15.20859 h 11.23758 z m -2.33348,-4.07337 h 4.68744 l 11.64696,30.56048 h -4.29853 l -2.78381,-7.8397 h -13.77575 l -2.78381,7.8397 h -4.35993 z"
         style="text-align:center;text-anchor:middle;stroke-width:1.04802155"
         id="path37" />
      <path
         d="m 176.55695,224.5704 q 1.33049,0.45032 2.57911,1.9241 1.26909,1.47378 2.53818,4.0529 l 4.19618,8.35142 h -4.44181 l -3.90961,-7.8397 q -1.51472,-3.07037 -2.94756,-4.07336 -1.41238,-1.00299 -3.86868,-1.00299 h -4.50322 v 12.91605 h -4.13477 v -30.56048 h 9.33394 q 5.24011,0 7.81923,2.1902 2.57911,2.1902 2.57911,6.61155 0,2.88615 -1.35096,4.78978 -1.3305,1.90364 -3.88914,2.64053 z m -10.35741,-12.83418 v 10.84867 h 5.19917 q 2.9885,0 4.50322,-1.37144 1.53519,-1.3919 1.53519,-4.07336 0,-2.68147 -1.53519,-4.03243 -1.51472,-1.37144 -4.50322,-1.37144 z"
         style="text-align:center;text-anchor:middle;stroke-width:1.04802155"
         id="path39" />
      <path
         d="m 19.067114,260.73942 h 4.134774 v 30.56048 h -4.134774 z"
         style="text-align:center;text-anchor:middle;stroke-width:1.04802155"
         id="path41" />
      <path
         d="m 31.430497,260.73942 h 6.161222 l 7.798755,20.79668 7.839695,-20.79668 h 6.161222 v 30.56048 h -4.032428 v -26.83509 l -7.880633,20.96043 h -4.155242 l -7.880633,-20.96043 v 26.83509 h -4.011958 z"
         style="text-align:center;text-anchor:middle;stroke-width:1.04802155"
         id="path43" />
      <path
         d="m 77.83412,264.81278 -5.608554,15.2086 h 11.237577 z m -2.333486,-4.07336 h 4.687441 l 11.646961,30.56048 h -4.298527 l -2.783808,-7.8397 H 70.976946 l -2.783808,7.8397 h -4.359934 z"
         style="text-align:center;text-anchor:middle;stroke-width:1.04802155"
         id="path45" />
      <path
         d="m 116.37757,286.93996 v -8.20814 h -6.75482 v -3.39788 h 10.84866 v 13.12074 q -2.39489,1.69894 -5.28105,2.57912 -2.88615,0.8597 -6.16122,0.8597 -7.16421,0 -11.217108,-4.17571 -4.032427,-4.19618 -4.032427,-11.66743 0,-7.49172 4.032427,-11.66743 4.052898,-4.19618 11.217108,-4.19618 2.9885,0 5.66996,0.73689 2.70193,0.73689 4.97401,2.16973 v 4.40087 q -2.29255,-1.94457 -4.87166,-2.92709 -2.57912,-0.98252 -5.42433,-0.98252 -5.60856,0 -8.4333,3.13179 -2.804281,3.13178 -2.804281,9.33394 0,6.18169 2.804281,9.31348 2.82474,3.13178 8.4333,3.13178 2.1902,0 3.90961,-0.36845 1.71941,-0.38891 3.09084,-1.18721 z"
         style="text-align:center;text-anchor:middle;stroke-width:1.04802155"
         id="path47" />
      <path
         d="m 128.045,260.73942 h 19.32291 v 3.47976 h -15.18813 v 9.04737 h 14.55358 v 3.47976 h -14.55358 v 11.07383 h 15.55657 v 3.47976 H 128.045 Z"
         style="text-align:center;text-anchor:middle;stroke-width:1.04802155"
         id="path49" />
      <path
         d="m 154.57307,260.73942 h 5.56761 l 13.5506,25.566 v -25.566 h 4.01195 v 30.56048 h -5.56761 l -13.5506,-25.566 v 25.566 h -4.01195 z"
         style="text-align:center;text-anchor:middle;stroke-width:1.04802155"
         id="path51" />
    </g>
  </g>
</svg>
